# xmcd CD database file
#
# Track frame offsets:
#	150
#	33225
#	71785
#	128875
#	147965
#	178845
#	205140
#	236930
#
# Disc length: 3583 seconds
#
# Revision: 1
# Processed by: cddbd v1.5.1PL0 Copyright (c) Steve Scherf et al.
# Submitted via: CDex 1.51
#
DISCID=7a0dfd08
DTITLE=Jessica Williams - IT'S JESSICA TIME
DYEAR=1999
DGENRE=Jazz
TTITLE0=The Sheikh
TTITLE1=I'm in the Mood for Love
TTITLE2=Impressions of Spain and Will O'the Wisp
TTITLE3=Red Top
TTITLE4=Lulu's Back in Town
TTITLE5=I Fall in Love Too Easily
TTITLE6=Bye Bye Blackbird
TTITLE7=Mandela's Dream
EXTD=YEAR: 1999
EXTT0=
EXTT1=
EXTT2=
EXTT3=
EXTT4=
EXTT5=
EXTT6=
EXTT7=
PLAYORDER=
